<svg preserveAspectRatio="none" width="100%" height="100%" overflow="visible" style="display: block;" viewBox="0 0 24 24" fill="none" xmlns="http://www.w3.org/2000/svg">
<g id="btn-back">
<g id="Ellipse 595">
<circle cx="12" cy="12" r="12" fill="var(--fill-0, white)"/>
<circle cx="12" cy="12" r="11.7273" stroke="var(--stroke-0, black)" stroke-opacity="0.2" stroke-width="0.545455"/>
</g>
<g id="vuesax/bold/edit-2">
<path id="Union" d="M10.7254 9.54266C10.8971 9.38106 11.1758 9.44464 11.2762 9.6579C11.2897 9.68651 11.3029 9.71588 11.3172 9.74481C11.4106 9.92057 11.5045 10.09 11.6112 10.2595C11.6978 10.3975 11.791 10.5355 11.8709 10.6296C11.9709 10.7739 12.0845 10.9 12.1512 10.9753C12.1975 11.0313 12.2308 11.0748 12.2508 11.0876C12.4708 11.3386 12.7174 11.5652 12.9373 11.7409C12.9901 11.7906 13.0368 11.8278 13.0506 11.8347C13.1773 11.9351 13.3113 12.0361 13.4246 12.1052C13.5645 12.1992 13.7049 12.2873 13.8514 12.3688C14.0312 12.4691 14.2179 12.5565 14.411 12.6442C14.4263 12.6505 14.4418 12.6567 14.4569 12.6628C14.6901 12.7571 14.7559 13.0663 14.5731 13.239L10.7909 16.8005C10.7108 16.8819 10.5445 16.9564 10.4246 16.9753L7.8641 17.3151C7.78437 17.3276 7.70458 17.3337 7.62484 17.3337C7.26496 17.3337 6.93123 17.2144 6.69125 16.9948C6.41125 16.7249 6.28475 16.323 6.35141 15.8962L6.71078 13.4919C6.73078 13.3853 6.81081 13.2288 6.89731 13.1472L10.7254 9.54266ZM12.7977 7.59149C14.1243 6.34247 15.3911 6.37384 16.6844 7.59149C17.3511 8.21291 17.6706 8.81577 17.6639 9.4372C17.6639 10.0397 17.3442 10.6356 16.6844 11.2507L15.8846 12.0104C15.8313 12.0606 15.7645 12.0856 15.6913 12.0856C15.6647 12.0856 15.6378 12.0802 15.6112 12.0739C13.8445 11.5969 12.4313 10.2656 11.9246 8.60223C11.898 8.51437 11.9244 8.41403 11.9911 8.35126L12.7977 7.59149Z" fill="var(--fill-0, #292D32)"/>
<g id="Vector" opacity="0">
</g>
</g>
</g>
</svg>
